<svg width="18" height="14" viewBox="0 0 18 14" fill="none" xmlns="http://www.w3.org/2000/svg">
<path d="M11.5 7C11.5 7.66304 11.2366 8.29893 10.7678 8.76777C10.2989 9.23661 9.66304 9.5 9 9.5C8.33696 9.5 7.70107 9.23661 7.23223 8.76777C6.76339 8.29893 6.5 7.66304 6.5 7C6.5 6.33696 6.76339 5.70107 7.23223 5.23223C7.70107 4.76339 8.33696 4.5 9 4.5C9.66304 4.5 10.2989 4.76339 10.7678 5.23223C11.2366 5.70107 11.5 6.33696 11.5 7V7Z" stroke="#DADADA" stroke-width="1.5" stroke-linecap="round" stroke-linejoin="round"/>
<path d="M1.04834 7C2.11001 3.61917 5.26917 1.16667 9.00001 1.16667C12.7317 1.16667 15.89 3.61917 16.9517 7C15.89 10.3808 12.7317 12.8333 9.00001 12.8333C5.26917 12.8333 2.11001 10.3808 1.04834 7V7Z" stroke="#DADADA" stroke-width="1.5" stroke-linecap="round" stroke-linejoin="round"/>
</svg>
